<?xml version="1.0" encoding="UTF-8" standalone="no"?>
<svg width="101px" height="90px" viewBox="0 0 101 90" version="1.1" xmlns="http://www.w3.org/2000/svg" xmlns:xlink="http://www.w3.org/1999/xlink" xmlns:sketch="http://www.bohemiancoding.com/sketch/ns">
    <!-- Generator: Sketch 3.0.4 (8053) - http://www.bohemiancoding.com/sketch -->
    <title>GBK</title>
    <desc>Created with Sketch.</desc>
    <defs></defs>
    <g id="Welcome" stroke="none" stroke-width="1" fill="none" fill-rule="evenodd" sketch:type="MSPage">
        <g id="HOME" sketch:type="MSArtboardGroup" transform="translate(-669.000000, -26.000000)" fill="#191918">
            <g id="Header" sketch:type="MSLayerGroup">
                <g id="Fill-1-+-Fill-3-+-JOIN-THE-GANG---/----2" transform="translate(249.000000, 26.000000)" sketch:type="MSShapeGroup">
                    <path d="M520.826087,85.2394366 L520.826087,89.0576928 L421,89.0576928 L421,85.2394366 L520.826087,85.2394366 Z M520.798758,0.221327848 L520.798758,4.05644715 L420.971118,4.05644715 L420.971118,0.221327848 L520.798758,0.221327848 Z M420.977019,55.8600682 L420.977019,31.4500226 C421.058385,31.3850682 421.11646,31.2982542 421.174534,31.2982542 C423.887578,31.291384 426.617081,31.0993314 429.309317,31.3363524 C433.610248,31.7151489 436.214286,35.7488787 435.468944,39.9028366 C435.241925,41.1675735 434.579503,42.352991 434.118944,43.5683875 C434.531366,44.6139033 435.137267,45.7206261 435.404969,46.9051068 C436.414286,51.3685349 433.436335,55.497198 428.890062,55.8263419 C426.308696,56.0130857 423.703106,55.8600682 420.977019,55.8600682 Z M425.86646,50.9831805 C427.000311,50.9097945 428.014286,50.942584 428.986025,50.7549033 C430.084472,50.5425524 430.71118,49.5710471 430.703106,48.4237278 C430.695342,47.334805 430.068634,46.3008436 429.059006,46.1490752 C428.018944,45.9929349 426.937888,46.1144121 425.86646,46.1144121 L425.86646,50.9831805 L425.86646,50.9831805 Z M425.897516,41.1044928 C426.981677,41.037977 428.025155,41.0754507 429.025466,40.8852717 C430.135404,40.67417 430.77236,39.6080436 430.700621,38.4204401 C430.634161,37.3205875 429.854658,36.3468963 428.793168,36.2410331 C427.847826,36.1467243 426.885714,36.2213594 425.821429,36.2213594 C425.821429,37.554798 425.817391,38.7898682 425.824224,40.0249384 C425.825776,40.325977 425.863665,40.6267033 425.897516,41.1044928 L425.897516,41.1044928 Z M487.110559,27.5293384 L483.168944,27.5293384 C482.574224,24.5726647 481.987267,21.6550261 481.400311,18.7370752 C481.351553,18.7417594 481.303106,18.7464436 481.254348,18.7508156 L481.254348,27.4803103 L477.357143,27.4803103 L477.357143,7.85565416 L483.183851,7.85565416 C483.808696,10.9728401 484.430435,14.0747243 485.052484,17.1766085 C485.108696,17.1822296 485.164907,17.1878507 485.221118,17.1934717 C485.840994,14.114384 486.46118,11.0356085 487.096273,7.88063662 L492.943478,7.88063662 L492.943478,27.4956121 L489.165217,27.4956121 L489.165217,18.8039033 C489.072671,18.7914121 488.980124,18.7786085 488.887267,18.7661173 C488.297205,21.6765735 487.707143,24.5873419 487.110559,27.5293384 M516.658385,45.386798 C518.049068,48.8987068 519.404658,52.3222401 520.795342,55.8341489 L515.923292,55.8341489 C514.690062,52.7428822 513.454969,49.6475559 512.219876,46.5519173 C512.16646,46.5587875 512.113354,46.56597 512.059938,46.5728401 L512.059938,55.7835594 L507.18882,55.7835594 L507.18882,31.2426682 C509.058075,31.2426682 510.907143,31.2214331 512.75559,31.2520366 C513.603727,31.2660893 514.475776,31.2748331 515.293168,31.4703208 C518.217391,32.1698296 520.000621,34.0697454 520.611801,37.0070577 C521.269255,40.1670261 520.324224,42.7708226 517.706832,44.7057138 C517.397826,44.933991 517.062112,45.1260436 516.658385,45.386798 L516.658385,45.386798 Z M512.050311,41.0051875 C513.481056,41.1113629 514.768634,41.1888085 515.578882,39.858805 C516.114286,38.9800471 516.05528,37.9098612 515.426708,37.1185419 C514.513354,35.9687243 513.297826,36.1142471 512.050311,36.2947454 L512.050311,41.0051875 L512.050311,41.0051875 Z M466.350311,45.3864857 C467.741615,48.8983945 469.098447,52.3241138 470.48913,55.8344612 L465.614907,55.8344612 C464.386335,52.7541243 463.151242,49.6569243 461.916149,46.5594121 C461.861801,46.5662822 461.807453,46.5728401 461.753106,46.579398 L461.753106,55.7807489 L456.879814,55.7807489 L456.879814,31.2426682 C458.67205,31.2426682 460.443478,31.2198717 462.213975,31.2517243 C463.139752,31.2685875 464.092857,31.2598436 464.983851,31.4728191 C468.171739,32.2350963 469.959627,34.3904577 470.417081,37.5760331 C470.837578,40.5061629 469.845963,42.9453875 467.401863,44.7044647 C467.089752,44.9293068 466.756211,45.1244822 466.350311,45.3864857 L466.350311,45.3864857 Z M461.739752,40.9926963 C463.14441,41.1272893 464.417081,41.1919314 465.25,39.8922191 C465.804037,39.0278261 465.753416,37.9723173 465.140062,37.1519559 C464.247826,35.9581068 463.015217,36.1467243 461.739752,36.265391 L461.739752,40.9926963 Z M507.189752,81.5804436 L507.189752,59.5125033 L511.556211,59.5125033 C513.081056,62.9682015 514.639441,66.4994717 516.197826,70.0310542 C516.263354,70.0138787 516.328882,69.996391 516.39472,69.9792156 L516.39472,59.5396717 L520.762112,59.5396717 L520.762112,81.5801314 L516.386025,81.5801314 C514.86087,78.1169384 513.314286,74.6047173 511.767702,71.0924963 C511.704969,71.1012401 511.642236,71.109984 511.579193,71.1190401 L511.579193,81.5804436 L507.189752,81.5804436 Z M487.943168,38.5228682 L483.156832,38.5228682 C483.079503,38.322384 482.982298,38.0803664 482.892857,37.8352261 C482.450311,36.6226401 481.43354,36.0233735 480.142547,36.2154261 C479.029503,36.3812471 478.207143,37.2706226 478.195963,38.4863314 C478.164907,41.8414752 478.163665,45.1972436 478.195342,48.5520752 C478.208075,49.8855138 479.173292,50.8317243 480.458075,50.9141664 C481.673602,50.9922366 482.761491,50.1987314 482.937888,48.928998 C483.063975,48.0224471 482.962422,47.0843559 482.962422,46.0606998 L480.663975,46.0606998 L480.663975,41.15477 L487.852795,41.15477 C487.886335,41.425205 487.945652,41.6868963 487.946584,41.9488998 C487.953416,44.0948928 488.000621,46.2421349 487.936957,48.3862542 C487.84472,51.4803314 486.540683,53.8948857 483.657453,55.194598 C478.77205,57.3971138 473.332609,53.9982507 473.291615,48.6847945 C473.265217,45.2515805 473.245342,41.8174296 473.298137,38.3848401 C473.357764,34.5100612 476.219876,31.4831243 479.930435,31.2651524 C484.04441,31.0234471 487.185714,33.4814085 487.8,37.4248893 C487.852174,37.7602787 487.888199,38.0981664 487.943168,38.5228682 Z M438.453106,31.3026261 L443.285714,31.3026261 L443.285714,32.6160787 C443.285714,37.687205 443.284472,42.7580191 443.288509,47.8288331 C443.28882,48.2173103 443.27795,48.6167173 443.359627,48.9920787 C443.623913,50.2065384 444.738509,51.0190928 445.928261,50.9085454 C447.163043,50.7936261 448.093478,49.8689629 448.159006,48.6154682 C448.20559,47.720784 448.17205,46.8217278 448.17205,45.9245454 C448.172671,41.5167033 448.17236,37.1088612 448.17236,32.7010191 L448.17236,31.3351033 L452.988509,31.3351033 C453.012422,31.5942963 453.057453,31.8559875 453.057764,32.1176787 C453.061491,37.6178787 453.070497,43.1177664 453.056211,48.6176542 C453.047826,51.9490647 450.768012,55.242377 446.707143,55.801984 C443.655901,56.2223138 440.272671,54.7292998 438.912112,51.2058366 C438.609938,50.4232612 438.423913,49.5423173 438.417702,48.7050928 C438.374845,43.0884121 438.395031,37.4711068 438.397205,31.8541138 C438.397205,31.7039068 438.426708,31.5536998 438.453106,31.3026261 Z M496.252795,41.0898156 L503.489752,41.0898156 L503.489752,45.9810682 L496.250311,45.9810682 L496.250311,50.8941805 L503.482609,50.8941805 L503.482609,55.819784 L491.368944,55.819784 L491.368944,31.3213629 L503.487578,31.3213629 L503.487578,36.1432893 L496.252795,36.1432893 L496.252795,41.0898156 Z M489.14472,81.6179173 L484.831366,81.6179173 L484.831366,72.8222191 L479.800932,72.8222191 L479.800932,81.5954331 L475.441615,81.5954331 L475.441615,59.4438015 L477.533851,59.4438015 L479.734161,59.4438015 L479.734161,68.2323173 L484.818944,68.2323173 L484.818944,59.5215594 L489.14472,59.5215594 L489.14472,81.6179173 Z M429.742547,59.5071945 L434.122981,59.5071945 C432.640062,63.265805 431.206211,66.9010647 429.760248,70.565991 C431.197205,74.1987524 432.638509,77.8424436 434.119255,81.5854401 L429.729814,81.5854401 C428.354348,78.1384857 426.951863,74.6240787 425.549068,71.1093594 C425.493478,71.1209138 425.437888,71.1324682 425.382298,71.1440226 L425.382298,81.5604577 L421.003416,81.5604577 L421.003416,59.5365489 L425.299379,59.5365489 L425.299379,69.9348717 C425.381988,69.9579805 425.464907,69.9814015 425.547516,70.0045103 C426.943168,66.5122752 428.33882,63.0200401 429.742547,59.5071945 Z M492.76087,59.5062577 L503.458385,59.5062577 L503.458385,63.9041068 L497.151553,63.9041068 L497.151553,68.3069524 L503.488509,68.3069524 L503.488509,72.7082366 L497.177019,72.7082366 L497.177019,77.1922752 L503.487888,77.1922752 L503.487888,81.5610822 L492.76087,81.5610822 L492.76087,59.5062577 Z M463.65528,7.89906118 C465.813665,7.89906118 467.924845,7.69201908 469.977329,7.95339802 C472.339752,8.25443662 473.831056,9.87735943 474.429814,12.1832401 C475.074845,14.6674331 474.176708,17.1672401 472.276398,18.5378401 C471.99441,18.7414471 471.695031,18.9206963 471.293168,19.1833243 C472.363665,21.8989173 473.437888,24.6245033 474.562733,27.4778121 L470.646894,27.4778121 C469.690683,25.0916752 468.718012,22.6649419 467.745342,20.2382085 C467.665528,20.2572577 467.585404,20.2763068 467.50559,20.2950436 L467.50559,27.5224682 L463.65528,27.5224682 L463.65528,7.89906118 L463.65528,7.89906118 Z M467.61118,11.8490998 L467.61118,15.5958436 C468.707764,15.6979594 469.72764,15.8097559 470.377329,14.7714226 C470.801242,14.0937735 470.802795,13.3674085 470.384472,12.6863243 C469.741304,11.6389349 468.718634,11.7551033 467.61118,11.8490998 Z M472.548137,66.1075594 L468.327329,66.1075594 C468.238509,65.8655419 468.155901,65.6150928 468.055901,65.3721384 C467.64441,64.371591 466.750621,63.8107349 465.781056,63.9378331 C464.710248,64.0783594 463.948447,64.8268963 463.82795,65.9498577 C463.761801,66.5678612 463.803416,67.1977314 463.803106,67.8219805 C463.801553,70.1253629 463.788199,72.4287454 463.808696,74.7318156 C463.820807,76.1158436 464.513665,76.9858577 465.680745,77.1769735 C466.815528,77.3624682 467.730435,76.7197945 468.190683,75.4113384 C468.228882,75.302977 468.255901,75.1905559 468.303727,75.0269208 L472.583851,75.0269208 C472.628882,76.7660121 472.07236,78.2505945 470.940994,79.4787945 C469.047516,81.5336015 466.659006,82.1462963 464.040683,81.3521664 C461.546894,80.5958226 459.98882,78.8433033 459.559317,76.1942261 C459.47236,75.6580401 459.4,75.112798 459.396894,74.570991 C459.381056,71.7994998 459.357453,69.027384 459.400621,66.256205 C459.438509,63.8007419 460.380435,61.7880928 462.517391,60.4571524 C466.396273,58.0407243 472.102795,60.1198893 472.611801,65.6066612 C472.625466,65.752184 472.575776,65.9033278 472.548137,66.1075594 Z M428.806522,19.7266928 C428.148447,19.6807875 427.579814,19.6411278 426.919876,19.5949103 L426.919876,15.726377 L432.771429,15.726377 C432.771429,16.5386191 432.791304,17.3058928 432.767391,18.0712928 C432.716149,19.7038963 432.787578,21.3577349 432.545342,22.9625454 C432.131056,25.7087419 429.775776,27.551198 426.936957,27.5771173 C424.01087,27.6039735 421.697826,25.8064857 421.129503,23.0346822 C421.013354,22.4669559 420.93882,21.8804928 420.934161,21.3018366 C420.913665,18.7661173 420.891615,16.2294612 420.934161,13.6943664 C421.001242,9.70404364 424.514596,7.0087489 428.360559,7.95901908 C430.73323,8.54516995 432.751242,10.7539314 432.695342,13.6106752 C432.593789,13.6450261 432.486335,13.7118542 432.378571,13.7124787 C431.25528,13.7202857 430.131988,13.7171629 428.94441,13.7171629 C428.842857,13.4754577 428.747826,13.2328156 428.640373,12.9961068 C428.220807,12.0723805 427.475466,11.6698507 426.485093,11.825991 C425.596273,11.9665173 425.007764,12.6095033 424.887267,13.5775735 C424.872981,13.6931173 424.877019,13.8114717 424.877019,13.9282647 C424.876708,16.4642963 424.871739,19.0000156 424.880745,21.5360471 C424.88323,22.2764647 425.127019,22.915391 425.796584,23.3144857 C427.045342,24.0589629 428.602174,23.332598 428.791304,21.872998 C428.879814,21.1916015 428.806522,20.4892822 428.806522,19.7266928 Z M434.885714,17.6437805 C434.885714,16.2394542 434.854969,14.834191 434.892236,13.4308015 C434.965528,10.6643068 437.035404,8.27598399 439.658696,7.88001206 C442.78354,7.4084682 445.463354,8.96112785 446.349689,11.8128752 C446.554969,12.4724121 446.661801,13.1875349 446.67205,13.8792366 C446.709317,16.4143314 446.72236,18.9509875 446.678261,21.48577 C446.624845,24.5539278 444.930435,26.7689349 442.220497,27.428784 C438.419255,28.3540717 434.943168,25.6637735 434.885404,21.7396542 C434.865528,20.3746752 434.882298,19.0090717 434.882298,17.6437805 L434.885714,17.6437805 Z M442.751553,17.6834401 L442.741615,17.6834401 C442.741615,16.3581208 442.797516,15.0293664 442.725776,13.7077945 C442.657143,12.4458682 441.847516,11.756977 440.676087,11.8031945 C439.564286,11.8469138 438.852795,12.5717173 438.841304,13.7836787 C438.81646,16.3955945 438.808696,19.0084471 438.843789,21.6203629 C438.863975,23.1049454 440.156522,23.9752717 441.488199,23.4665664 C442.420186,23.1102542 442.732298,22.3461033 442.746894,21.4264366 C442.766149,20.1791875 442.751553,18.9313138 442.751553,17.6834401 Z M456.813665,7.85815241 L460.699689,7.85815241 C460.722981,8.21602609 460.759627,8.51862609 460.759627,8.82091381 C460.762733,13.1150857 460.784783,17.40957 460.753416,21.7034296 C460.724224,25.745591 457.110248,28.4702401 453.231988,27.3610191 C450.892857,26.6918015 449.494099,25.1013559 449.086957,22.6677524 C449.042236,22.3985664 448.98913,22.1259454 448.988509,21.8548857 C448.981677,17.3268156 448.981677,12.7987454 448.985404,8.27067522 C448.985714,8.16044013 449.046273,8.05020504 449.099068,7.87095592 L452.901242,7.87095592 L452.901242,9.1641103 C452.901242,13.0288963 452.899689,16.8936822 452.903416,20.7584682 C452.903727,21.1478822 452.890683,21.5444787 452.955901,21.9251489 C453.14472,23.0265629 453.917702,23.6358226 455,23.5824226 C456.062422,23.5299594 456.77795,22.8267033 456.799379,21.687191 C456.836025,19.7360612 456.813043,17.7836822 456.813665,15.8316156 C456.814286,13.2215735 456.813665,10.6112191 456.813665,7.85815241 Z M505.903416,15.6333173 L505.903416,19.6005314 L500.158696,19.6005314 L500.158696,23.5402647 L505.847516,23.5402647 L505.847516,27.5127875 L496.183851,27.5127875 L496.183851,7.89156644 L505.856832,7.89156644 L505.856832,11.7522928 L500.162733,11.7522928 L500.162733,15.6333173 L505.903416,15.6333173 Z M457.88913,63.8897419 L453.09441,63.8897419 L453.09441,81.5629559 L448.624534,81.5629559 L448.624534,63.9290893 L443.7,63.9290893 L443.7,59.5009489 L457.88913,59.5009489 L457.88913,63.8897419 Z M512.47795,11.788205 L508.075155,11.788205 L508.075155,7.89593837 L520.747205,7.89593837 L520.747205,11.7607243 L516.40559,11.7607243 L516.40559,27.5162226 L512.47795,27.5162226 L512.47795,11.788205 Z M437.299068,59.4578542 L441.58882,59.4578542 L441.58882,81.5613945 L437.299068,81.5613945 L437.299068,59.4578542 Z" id="GBK"></path>
                </g>
            </g>
        </g>
    </g>
</svg>